<?xml version="1.0" standalone="no"?>
<!DOCTYPE svg PUBLIC "-//W3C//DTD SVG 20010904//EN"
 "http://www.w3.org/TR/2001/REC-SVG-20010904/DTD/svg10.dtd">
<svg version="1.0" xmlns="http://www.w3.org/2000/svg"
 width="308.000000pt" height="308.000000pt" viewBox="0 0 308.000000 308.000000"
 preserveAspectRatio="xMidYMid meet">
<metadata>
Created by potrace 1.11, written by Peter Selinger 2001-2013
</metadata>
<g transform="translate(0.000000,308.000000) scale(0.100000,-0.100000)"
fill="#000000" stroke="none">
<path d="M1076 2873 c-3 -16 -8 -41 -11 -58 -3 -16 -7 -39 -9 -50 -5 -26 -20
-117 -21 -130 -1 -5 -5 -35 -10 -65 -5 -30 -9 -62 -10 -70 -1 -8 -5 -30 -9
-49 -5 -18 -10 -45 -11 -60 -2 -14 -5 -37 -8 -51 -2 -14 -8 -50 -12 -80 -5
-30 -9 -57 -10 -60 -1 -3 -5 -27 -10 -55 -4 -27 -9 -59 -11 -70 -2 -11 -7 -40
-9 -65 -3 -25 -8 -53 -11 -63 -3 -10 -7 -32 -10 -50 -2 -18 -11 -75 -19 -127
-21 -125 -24 -140 -30 -170 -3 -14 -8 -45 -11 -70 -3 -25 -7 -56 -10 -70 -32
-196 -41 -249 -48 -290 -12 -69 -38 -228 -41 -250 -2 -14 -6 -38 -9 -55 -3
-16 -12 -75 -21 -130 -9 -55 -18 -111 -20 -125 -5 -26 -20 -114 -31 -184 -3
-21 -8 -48 -10 -60 -3 -11 -7 -40 -9 -63 -2 -24 -6 -47 -9 -52 -4 -5 -8 -34
-11 -65 l-5 -56 123 0 123 0 19 118 c10 64 20 124 21 132 1 8 5 35 8 60 4 25
9 52 11 60 3 8 7 32 10 54 6 54 15 108 20 136 6 28 7 38 29 170 9 52 18 113
21 135 5 38 10 72 20 125 3 14 7 43 11 65 3 22 12 76 19 120 8 44 17 98 21
120 3 22 7 51 10 65 2 14 7 45 10 70 3 25 8 54 10 65 2 11 6 36 9 55 5 34 9
57 20 110 3 14 7 41 9 60 5 37 26 165 31 190 2 8 4 23 4 33 2 32 20 17 56 -45
20 -35 40 -70 45 -78 5 -8 24 -42 43 -75 19 -33 53 -93 76 -132 23 -40 56 -99
74 -130 57 -103 53 -99 71 -84 9 7 14 17 11 21 -3 5 -1 11 4 14 5 4 38 59 72
124 35 64 76 140 91 167 15 28 38 70 50 95 13 25 25 47 28 50 3 3 17 29 30 57
15 31 27 48 31 40 6 -12 35 -144 43 -203 3 -16 7 -42 11 -59 3 -16 12 -66 20
-110 8 -44 16 -91 19 -105 5 -26 22 -115 31 -160 3 -14 8 -41 11 -60 4 -19 9
-44 11 -55 2 -11 6 -33 9 -50 2 -16 7 -41 10 -55 3 -14 8 -36 10 -50 3 -14 14
-70 25 -125 10 -55 21 -113 24 -130 7 -45 42 -233 54 -290 6 -27 16 -75 21
-105 5 -30 12 -66 15 -80 3 -14 8 -38 10 -55 23 -128 38 -206 46 -238 l10 -38
122 3 122 3 -2 25 c0 14 -10 70 -21 125 -22 108 -26 128 -37 190 -12 68 -34
182 -39 196 -5 13 -10 40 -21 109 -4 28 -16 90 -70 365 -19 99 -37 194 -40
210 -3 17 -7 41 -10 55 -3 14 -7 36 -10 50 -2 14 -15 79 -29 145 -13 66 -27
138 -30 160 -4 22 -9 47 -11 55 -3 8 -7 31 -9 50 -3 19 -7 44 -10 55 -2 11
-18 90 -34 175 -17 85 -34 169 -37 185 -3 17 -8 43 -10 60 -6 36 -23 124 -36
180 -5 22 -11 51 -14 65 -2 14 -7 39 -10 55 -7 39 -18 99 -20 105 0 3 -4 28
-9 55 -15 103 -23 107 -56 33 -13 -29 -36 -80 -50 -113 -15 -33 -49 -109 -75
-170 -25 -60 -51 -117 -56 -125 -5 -8 -12 -22 -15 -30 -3 -8 -21 -49 -39 -90
-18 -41 -54 -124 -81 -185 -48 -111 -61 -135 -73 -135 -4 0 -23 33 -42 73 -19
39 -37 74 -41 75 -5 2 -8 9 -8 15 0 7 -33 80 -74 162 -41 83 -122 248 -180
368 -59 119 -109 217 -111 217 -2 0 -6 -12 -9 -27z"/>
</g>
</svg>
